<svg id="svg" version="1.1" xmlns="http://www.w3.org/2000/svg" xmlns:xlink="http://www.w3.org/1999/xlink" width="400" height="250" viewBox="0, 0, 400,250"><g id="svgg"><path id="path0" d="M-0.000 115.855 C -0.000 232.441,0.001 232.580,0.646 232.332 C 0.841 232.258,1.000 232.321,1.000 232.473 C 1.000 232.625,1.084 232.726,1.187 232.697 C 1.291 232.668,2.331 232.945,3.500 233.313 C 4.669 233.680,6.806 234.333,8.250 234.763 C 12.035 235.891,13.132 236.428,13.891 237.523 C 14.880 238.951,17.299 241.157,18.398 241.635 C 22.479 243.408,31.222 243.169,36.500 241.139 C 38.135 240.511,39.145 240.293,40.879 240.196 C 43.630 240.042,44.746 239.539,46.901 237.483 C 49.675 234.838,50.155 234.929,68.625 241.616 C 74.702 243.815,78.328 244.148,85.217 243.139 C 92.562 242.062,94.915 240.934,95.758 238.087 C 96.620 235.172,94.921 233.520,89.250 231.757 C 83.284 229.902,82.823 228.779,86.563 225.204 C 87.980 223.850,96.805 223.523,102.136 224.628 C 103.220 224.852,103.929 228.040,103.000 228.518 C 102.794 228.624,101.894 229.048,101.000 229.461 C 98.578 230.579,96.691 232.970,97.725 233.609 C 97.876 233.703,98.000 233.984,98.000 234.233 C 98.000 234.816,99.885 236.554,101.288 237.266 C 101.886 237.569,102.431 237.898,102.500 237.998 C 102.773 238.392,109.068 241.560,110.913 242.231 C 113.359 243.121,116.764 243.596,120.500 243.567 C 123.176 243.547,124.637 243.348,129.125 242.395 C 130.088 242.191,131.754 242.025,132.829 242.026 C 134.842 242.028,135.807 241.811,137.750 240.922 C 140.374 239.721,142.454 240.125,147.075 242.733 C 149.672 244.199,152.285 244.513,157.583 243.998 C 163.309 243.441,166.748 241.650,169.955 237.553 C 171.410 235.693,173.760 235.018,178.820 235.004 C 180.126 235.001,180.550 234.910,180.666 234.609 C 180.840 234.155,179.438 232.590,178.640 232.347 C 178.357 232.261,177.918 232.009,177.666 231.787 C 177.414 231.565,176.739 231.148,176.166 230.860 C 173.988 229.765,172.967 226.909,173.734 224.059 C 174.256 222.121,174.636 222.042,183.648 221.979 C 193.623 221.910,192.573 221.373,195.095 227.834 C 196.450 231.305,196.515 232.023,195.560 232.979 C 194.912 233.626,191.478 234.945,189.315 235.377 C 185.872 236.064,192.932 239.614,202.500 242.006 C 211.778 244.325,222.506 243.948,227.375 241.131 C 228.650 240.393,229.122 239.863,229.976 238.211 C 230.870 236.479,231.204 236.455,232.664 238.017 C 236.729 242.364,245.090 243.552,252.013 240.766 C 254.179 239.894,254.817 239.738,255.750 239.851 C 256.369 239.926,258.281 240.094,260.000 240.224 C 263.583 240.495,264.290 240.623,269.391 241.916 C 276.321 243.674,279.208 243.351,282.393 240.465 C 284.226 238.804,284.914 238.660,287.500 239.398 C 288.256 239.614,290.450 240.114,292.375 240.508 C 294.300 240.903,296.336 241.389,296.901 241.589 C 300.194 242.754,305.705 242.773,309.237 241.630 C 311.557 240.880,312.281 240.874,316.375 241.571 C 327.688 243.497,332.568 243.010,336.956 239.518 C 339.485 237.506,340.997 237.283,343.693 238.525 C 350.487 241.655,358.140 242.975,361.851 241.658 C 364.137 240.846,364.941 240.835,366.446 241.597 C 369.083 242.931,374.336 243.982,376.565 243.622 C 383.436 242.511,383.387 234.079,376.500 232.366 C 375.606 232.144,374.454 231.854,373.939 231.722 C 371.357 231.059,371.774 225.600,374.427 225.341 C 374.948 225.290,375.612 225.194,375.903 225.128 C 377.180 224.837,383.203 224.708,383.676 224.960 C 383.973 225.119,386.017 225.228,388.773 225.231 C 391.304 225.234,393.600 225.249,393.875 225.264 C 394.150 225.279,395.359 225.307,396.563 225.326 C 397.766 225.345,398.750 225.462,398.750 225.586 C 398.750 225.710,398.919 225.671,399.125 225.500 C 399.384 225.285,399.500 225.276,399.500 225.469 C 399.500 225.624,399.613 225.750,399.750 225.750 C 399.916 225.750,400.000 187.958,400.000 112.875 L 400.000 0.000 200.000 0.000 L 0.000 0.000 -0.000 115.855 M370.197 33.977 C 371.559 34.677,372.361 35.639,373.459 37.885 C 374.206 39.415,374.687 40.061,375.489 40.617 C 379.879 43.660,382.836 51.630,381.642 57.204 C 380.670 61.740,381.775 64.232,386.062 67.174 C 388.597 68.914,389.244 73.049,387.217 74.562 C 386.438 75.144,385.824 74.905,383.491 73.115 C 382.052 72.011,380.743 71.510,379.250 71.493 C 378.031 71.478,377.748 71.275,374.018 67.750 C 368.821 62.838,368.689 62.249,371.951 58.503 C 375.092 54.895,375.446 52.512,373.445 48.452 C 372.796 47.136,372.021 45.407,371.723 44.610 C 371.066 42.856,370.376 42.177,368.555 41.495 C 365.423 40.324,364.280 41.007,363.504 44.517 C 363.248 45.676,362.622 47.520,362.113 48.614 C 361.604 49.707,361.065 51.318,360.915 52.193 C 360.634 53.834,360.609 53.638,361.803 59.056 C 362.016 60.023,361.985 60.453,361.627 61.431 C 360.843 63.576,360.868 64.693,361.752 66.895 C 365.145 75.356,359.502 77.201,353.725 69.519 C 350.832 65.672,350.540 64.391,351.608 60.239 C 351.943 58.939,352.291 56.919,352.381 55.750 C 352.581 53.167,352.721 52.569,354.157 48.125 C 356.310 41.464,358.352 38.101,361.091 36.704 C 361.650 36.418,362.678 35.754,363.375 35.228 C 365.760 33.428,368.244 32.972,370.197 33.977 M44.065 36.721 C 49.038 39.128,50.552 43.356,49.895 53.000 C 49.687 56.057,49.700 56.185,50.463 58.875 C 54.210 72.076,50.453 76.756,44.136 66.757 C 41.598 62.740,41.372 61.490,42.511 57.786 C 43.106 55.853,43.124 54.209,42.595 50.057 C 41.732 43.283,39.524 40.762,34.723 41.073 C 32.086 41.244,31.870 40.948,33.399 39.256 C 35.925 36.461,41.024 35.249,44.065 36.721 M115.599 37.002 C 119.626 39.060,122.313 43.371,120.861 45.444 C 120.190 46.402,119.313 46.044,116.150 43.521 C 114.544 42.240,113.145 41.841,111.613 42.227 C 105.375 43.798,104.358 51.689,109.411 59.304 C 111.581 62.574,111.711 63.444,110.354 65.625 C 108.469 68.658,108.012 69.707,106.870 73.625 C 104.313 82.404,102.867 85.061,101.258 83.934 C 100.168 83.170,95.972 78.495,95.620 77.651 C 94.940 76.024,95.283 72.239,96.495 68.000 C 96.851 66.756,97.095 64.947,97.222 62.625 L 97.413 59.125 98.971 56.125 C 100.430 53.317,100.568 52.901,101.135 49.625 C 103.017 38.752,108.928 33.594,115.599 37.002 M205.912 39.077 C 207.409 39.839,208.641 41.218,209.056 42.593 C 209.478 43.994,209.027 44.246,206.145 44.217 C 201.907 44.174,201.002 44.799,199.314 48.934 C 198.711 50.414,197.976 52.188,197.683 52.875 C 196.758 55.041,196.921 58.640,198.108 62.250 C 199.343 66.005,199.691 71.975,198.760 73.453 C 197.601 75.293,195.272 75.436,192.703 73.825 C 191.835 73.280,190.407 72.454,189.529 71.989 C 185.515 69.865,185.056 67.217,187.731 61.625 C 189.283 58.382,189.433 57.872,189.741 54.786 C 190.339 48.807,191.318 46.797,195.814 42.314 C 200.179 37.962,202.354 37.265,205.912 39.077 M258.886 41.737 C 261.898 43.220,263.002 45.338,263.259 50.125 C 263.422 53.169,263.486 53.477,264.279 54.985 C 265.110 56.565,265.124 56.646,265.065 59.389 C 264.997 62.612,265.738 65.814,267.371 69.350 C 269.237 73.389,269.249 76.703,267.422 83.537 C 266.816 85.806,266.768 86.420,266.617 93.912 C 266.427 103.327,266.195 104.500,264.517 104.500 C 263.255 104.500,262.101 102.985,259.660 98.125 L 258.907 96.625 258.846 86.125 C 258.800 78.042,258.698 75.136,258.406 73.500 C 257.983 71.136,257.635 67.942,257.255 62.936 C 256.817 57.170,255.989 55.665,252.303 53.938 C 249.837 52.783,248.164 52.544,245.734 53.003 C 242.004 53.707,241.923 50.895,245.553 46.707 C 250.277 41.256,251.262 40.667,255.338 40.862 C 256.909 40.937,257.617 41.112,258.886 41.737 M301.643 43.368 C 303.681 44.216,305.342 46.653,305.201 48.588 C 305.115 49.761,305.428 49.692,301.708 49.359 C 298.342 49.057,297.044 49.682,295.549 52.322 C 295.143 53.039,294.165 54.348,293.374 55.232 C 291.251 57.607,291.152 57.939,291.215 62.512 C 291.281 67.339,291.164 67.583,288.041 69.188 C 285.043 70.727,280.626 70.688,279.594 69.113 C 277.525 65.955,286.109 49.951,291.978 46.021 C 296.913 42.716,298.821 42.192,301.643 43.368 M336.586 43.028 C 337.827 43.593,338.142 45.301,337.035 45.458 C 335.692 45.649,334.250 44.706,334.250 43.636 C 334.250 42.767,335.372 42.474,336.586 43.028 M152.278 50.938 C 152.637 51.866,152.394 53.432,151.580 55.450 C 150.279 58.672,150.609 59.863,154.217 64.952 C 157.753 69.941,157.608 71.527,153.504 72.749 C 151.226 73.427,150.591 74.058,150.365 75.866 C 150.112 77.893,149.491 78.543,147.659 78.695 C 144.912 78.923,144.657 77.887,146.352 73.375 C 146.617 72.671,146.731 71.365,146.739 68.965 C 146.750 65.404,147.151 62.592,147.998 60.131 C 148.283 59.301,148.550 57.655,148.639 56.168 C 148.897 51.884,151.306 48.421,152.278 50.938 M215.749 54.313 C 219.957 58.862,220.649 60.714,220.039 65.801 C 219.885 67.079,219.693 69.306,219.612 70.750 C 219.237 77.420,216.191 78.395,209.928 73.850 C 208.376 72.724,208.079 72.212,207.310 69.330 C 206.323 65.633,206.382 65.183,208.349 61.375 C 209.823 58.522,210.087 57.796,210.507 55.434 C 211.441 50.182,211.848 50.095,215.749 54.313 M307.518 52.851 C 310.621 54.959,312.028 58.467,311.387 62.497 C 310.899 65.570,311.129 66.712,312.739 69.202 C 314.762 72.333,314.874 72.649,314.873 75.250 C 314.873 79.049,312.883 82.250,310.522 82.250 C 309.103 82.250,308.503 81.397,307.508 77.967 C 306.304 73.817,305.716 72.883,303.353 71.372 C 300.892 69.797,300.746 68.574,302.653 65.509 C 304.232 62.972,304.514 62.070,304.765 58.750 C 305.188 53.151,305.855 51.721,307.518 52.851 M76.524 53.517 C 77.470 54.191,77.523 55.406,76.644 56.233 C 75.920 56.912,75.717 56.819,75.026 55.494 C 73.952 53.433,74.812 52.298,76.524 53.517 M334.248 55.709 C 335.521 56.983,335.553 59.555,334.313 61.028 C 332.460 63.230,330.903 61.972,330.578 58.010 C 330.346 55.172,332.414 53.875,334.248 55.709 M161.120 56.597 C 162.521 57.998,162.088 62.650,160.476 63.513 C 159.178 64.208,157.309 60.414,157.753 57.985 C 158.100 56.084,159.875 55.352,161.120 56.597 M204.250 56.500 C 204.250 56.638,204.018 56.750,203.735 56.750 C 203.452 56.750,203.290 56.638,203.375 56.500 C 203.460 56.362,203.692 56.250,203.890 56.250 C 204.088 56.250,204.250 56.362,204.250 56.500 M76.068 59.295 C 77.150 61.474,73.984 64.614,72.639 62.694 C 71.740 61.411,72.332 59.991,74.250 58.826 C 75.354 58.155,75.524 58.199,76.068 59.295 M123.734 59.728 C 126.015 62.930,125.993 66.171,123.701 64.828 C 122.504 64.127,121.930 63.176,121.812 61.698 C 121.614 59.225,122.633 58.181,123.734 59.728 M251.216 59.522 C 252.367 60.594,251.436 63.093,250.080 62.573 C 249.306 62.276,248.619 59.714,249.167 59.167 C 249.514 58.819,250.678 59.021,251.216 59.522 M299.007 59.384 C 299.776 60.310,298.252 61.614,297.399 60.760 C 297.097 60.458,297.016 60.250,297.201 60.250 C 297.372 60.250,297.619 59.969,297.750 59.625 C 298.019 58.917,298.537 58.817,299.007 59.384 M242.730 60.407 C 244.332 62.443,245.170 67.463,244.117 68.714 C 241.835 71.426,239.678 70.089,239.707 65.980 C 239.741 61.133,241.194 58.454,242.730 60.407 M29.978 63.404 C 30.490 64.054,30.475 64.500,29.942 64.500 C 29.485 64.500,28.750 63.706,28.750 63.211 C 28.750 62.545,29.381 62.645,29.978 63.404 M40.317 68.438 C 40.816 68.816,41.894 69.981,42.714 71.027 C 44.580 73.409,45.768 74.371,48.689 75.867 C 53.088 78.120,53.184 79.479,49.946 93.625 C 49.105 97.299,49.323 99.987,50.769 103.804 C 52.493 108.354,51.860 109.357,47.407 109.131 C 43.866 108.951,40.722 109.223,33.292 110.353 C 26.411 111.399,25.062 110.016,27.109 104.013 C 28.097 101.117,28.176 100.098,27.640 97.125 C 27.442 96.025,27.098 94.116,26.876 92.883 C 26.410 90.299,25.474 88.370,24.375 87.730 C 21.895 86.288,21.750 86.160,21.750 85.425 C 21.750 84.187,22.532 82.963,24.905 80.482 C 27.297 77.981,27.955 76.955,28.498 74.875 C 28.936 73.193,29.014 73.137,30.945 73.126 C 33.437 73.111,35.780 71.623,37.587 68.910 C 37.978 68.323,38.704 67.828,39.268 67.766 C 39.347 67.757,39.819 68.059,40.317 68.438 M117.582 68.261 C 118.391 68.897,118.658 70.190,118.300 71.738 C 117.589 74.818,120.456 77.780,124.215 77.850 C 126.400 77.891,126.418 77.487,124.400 73.768 C 123.358 71.846,123.771 71.505,127.125 71.517 C 129.125 71.524,130.050 71.396,131.750 70.876 C 136.796 69.331,138.814 71.674,138.856 79.125 C 138.886 84.314,138.454 85.399,135.025 88.750 C 133.355 90.381,132.227 91.697,132.044 92.225 C 131.668 93.312,131.663 98.623,132.037 101.169 C 132.920 107.200,132.421 110.537,130.486 111.534 C 125.620 114.040,116.642 113.584,112.229 110.607 C 110.534 109.463,105.403 107.988,103.005 107.955 C 100.616 107.922,98.265 110.569,96.716 115.036 C 95.151 119.549,92.541 120.517,85.344 119.254 C 82.189 118.701,81.242 118.689,77.805 119.158 C 76.574 119.326,75.801 119.062,73.577 117.712 C 69.562 115.277,68.561 115.053,65.812 115.979 C 62.404 117.127,61.075 116.484,58.851 112.608 C 56.569 108.631,56.389 107.554,57.243 103.000 C 57.818 99.932,58.247 93.693,58.249 88.365 C 58.251 82.424,58.949 80.565,62.534 76.960 C 65.711 73.765,66.773 73.580,71.088 75.471 C 75.834 77.551,76.671 77.594,79.329 75.894 C 83.918 72.958,87.311 73.863,89.102 78.500 C 89.958 80.713,91.073 82.450,92.634 84.000 C 94.246 85.600,94.860 87.050,95.974 91.877 C 98.229 101.657,99.912 104.302,102.297 101.813 C 104.286 99.736,106.854 92.348,107.612 86.522 C 107.827 84.871,108.393 82.232,108.871 80.656 C 109.349 79.080,110.021 76.487,110.366 74.893 C 111.281 70.661,111.964 69.559,114.419 68.356 C 115.911 67.626,116.742 67.600,117.582 68.261 M253.104 70.020 C 254.574 73.694,255.037 81.016,254.177 87.000 C 253.819 89.492,253.793 91.023,253.979 98.500 C 254.252 109.451,254.818 108.396,248.125 109.388 C 245.925 109.714,243.113 110.208,241.875 110.485 C 237.197 111.533,236.363 111.188,235.511 107.845 C 235.110 106.272,234.436 105.603,232.657 105.011 C 230.469 104.282,229.173 103.403,226.406 100.767 C 225.097 99.520,223.913 98.500,223.773 98.500 C 223.325 98.500,222.583 99.486,222.287 100.475 C 221.184 104.158,221.883 106.727,225.626 112.750 C 229.312 118.681,221.459 120.338,212.625 115.494 C 206.780 112.288,203.701 111.105,199.019 110.263 C 193.354 109.245,192.299 109.575,189.472 113.244 L 189.069 113.767 188.538 113.196 C 187.598 112.185,186.774 110.918,185.842 109.048 L 184.931 107.221 184.903 103.287 C 184.879 99.948,184.807 99.249,184.424 98.665 C 183.343 97.014,181.995 97.330,181.495 99.352 C 181.355 99.915,180.914 101.275,180.513 102.375 C 179.732 104.518,179.250 106.770,179.250 108.270 C 179.250 110.459,177.422 114.219,175.185 116.631 C 174.808 117.038,174.500 117.434,174.500 117.513 C 174.500 118.079,172.321 119.103,171.802 118.782 C 171.438 118.557,171.363 111.120,171.715 110.250 C 171.854 109.906,171.975 109.725,171.984 109.846 C 171.993 109.968,172.208 109.799,172.461 109.471 C 173.000 108.774,173.300 107.485,173.026 107.042 C 172.526 106.234,171.417 107.768,171.417 109.266 C 171.417 109.658,171.335 109.927,171.235 109.865 C 171.134 109.804,170.995 109.903,170.924 110.087 C 170.715 110.633,169.163 111.237,166.566 111.785 C 165.223 112.067,162.787 112.792,161.151 113.395 C 154.475 115.856,152.975 115.462,152.490 111.122 C 152.220 108.707,151.873 107.348,151.374 106.750 C 149.371 104.353,149.443 101.243,151.532 99.840 C 152.727 99.038,153.162 98.180,152.902 97.142 C 152.690 96.300,148.996 92.433,147.138 91.108 C 144.028 88.891,146.055 85.481,151.081 84.471 C 154.440 83.797,157.999 80.803,162.100 75.202 C 163.923 72.712,165.342 72.449,169.180 73.888 C 171.831 74.883,172.961 75.200,175.297 75.606 C 176.491 75.813,178.170 76.268,179.027 76.617 C 181.012 77.423,181.008 77.423,183.109 76.334 C 186.060 74.805,188.005 75.077,190.477 77.367 C 192.936 79.644,194.933 79.692,200.687 77.609 C 203.309 76.660,203.556 76.668,205.823 77.777 C 206.620 78.166,208.082 78.723,209.073 79.014 C 210.064 79.305,212.056 79.951,213.500 80.450 C 215.658 81.196,216.485 81.359,218.149 81.366 L 220.173 81.375 221.593 80.163 C 224.236 77.906,225.735 78.324,227.446 81.795 C 230.956 88.912,232.308 89.793,234.441 86.353 C 235.092 85.302,236.082 83.864,236.640 83.158 C 237.198 82.453,238.209 80.978,238.888 79.882 C 240.583 77.142,242.731 74.919,245.250 73.298 C 246.419 72.546,248.162 71.233,249.125 70.379 C 251.578 68.204,252.349 68.134,253.104 70.020 M369.081 68.983 C 370.099 69.370,371.480 70.742,372.758 72.636 C 374.820 75.693,376.167 76.709,379.386 77.634 C 381.562 78.260,382.184 78.631,384.133 80.468 C 385.100 81.379,386.403 82.537,387.029 83.041 C 389.200 84.786,389.919 91.070,388.512 96.000 C 387.976 97.879,387.889 98.804,387.759 104.000 C 387.567 111.659,387.523 111.754,383.863 112.273 C 378.488 113.036,376.152 112.635,371.301 110.114 C 360.693 104.600,355.912 104.098,353.478 108.241 C 351.831 111.043,347.653 117.393,346.910 118.223 C 345.186 120.148,342.888 120.774,341.919 119.581 C 339.345 116.416,338.392 116.036,332.366 115.772 C 324.903 115.446,323.100 113.836,324.646 108.877 C 325.258 106.915,325.270 106.765,324.889 106.028 C 323.869 104.054,321.435 106.122,320.884 109.430 C 320.623 110.998,319.928 111.750,318.741 111.750 C 317.067 111.750,316.874 110.489,318.159 107.940 C 318.846 106.577,319.318 104.461,319.753 100.803 C 320.113 97.770,320.073 97.505,318.780 94.461 C 316.928 90.097,317.106 89.062,320.185 86.299 C 322.664 84.074,322.750 83.875,322.750 80.391 C 322.750 75.699,324.484 74.494,327.346 77.200 C 329.935 79.649,332.303 78.307,333.977 73.442 C 334.880 70.817,335.220 70.546,338.454 69.878 C 340.764 69.401,342.596 69.400,345.405 69.877 C 349.507 70.572,350.366 71.101,353.114 74.620 C 356.533 78.999,358.553 80.318,360.810 79.645 C 364.592 78.517,366.322 76.221,367.009 71.417 C 367.383 68.811,367.687 68.453,369.081 68.983 M24.286 69.329 C 24.859 69.764,24.303 70.500,23.402 70.500 C 22.635 70.500,22.300 69.917,22.753 69.372 C 23.126 68.922,23.730 68.905,24.286 69.329 M296.114 74.639 C 297.495 74.853,299.300 75.133,300.125 75.262 C 302.765 75.675,303.724 76.927,304.493 80.964 C 305.223 84.793,306.258 86.142,309.329 87.268 C 312.676 88.495,312.945 89.098,311.536 92.206 C 308.729 98.397,308.491 103.700,310.771 109.267 C 313.009 114.734,311.755 116.062,303.576 116.884 C 301.540 117.088,298.872 117.377,297.646 117.526 C 294.697 117.884,290.685 117.399,289.871 116.586 C 289.360 116.074,289.406 114.856,290.033 112.356 C 290.759 109.461,290.623 109.085,288.056 106.886 C 284.548 103.882,283.492 102.021,282.959 97.902 C 282.166 91.778,279.281 90.666,275.758 95.129 C 272.343 99.453,269.593 95.630,272.606 90.748 C 273.753 88.889,273.889 88.149,273.500 85.873 C 273.096 83.516,273.162 83.341,276.203 78.625 C 278.427 75.176,280.146 74.446,285.125 74.838 C 286.729 74.965,287.806 74.915,288.875 74.665 C 290.928 74.186,293.138 74.178,296.114 74.639 M14.327 84.839 C 14.768 85.988,13.678 90.371,12.686 91.438 C 10.628 93.651,9.111 88.653,11.025 85.965 C 11.875 84.772,14.020 84.040,14.327 84.839 M43.884 93.326 C 43.530 93.866,44.013 96.096,44.613 96.697 C 45.089 97.172,45.797 95.813,45.663 94.681 C 45.450 92.874,44.603 92.229,43.884 93.326 M67.053 95.410 C 63.848 98.755,63.463 108.242,66.482 109.493 C 67.989 110.117,68.420 109.415,69.374 104.795 C 69.705 103.189,70.253 100.829,70.590 99.552 C 71.744 95.184,69.635 92.715,67.053 95.410 M193.429 97.813 C 191.536 99.231,193.756 104.250,196.275 104.250 C 199.075 104.250,198.848 102.027,195.707 98.688 C 194.543 97.449,194.126 97.290,193.429 97.813 M348.687 98.770 C 347.058 99.719,346.889 104.189,348.415 106.002 C 350.429 108.396,353.550 105.325,352.508 101.975 C 351.642 99.188,350.137 97.926,348.687 98.770 M277.936 111.583 C 278.107 111.690,278.372 112.010,278.524 112.294 C 278.747 112.711,278.735 112.769,278.462 112.596 C 278.096 112.364,277.974 112.330,277.313 112.277 C 276.937 112.247,276.928 112.208,277.250 112.000 C 277.500 111.838,277.521 111.756,277.313 111.754 C 277.141 111.752,277.000 111.647,277.000 111.522 C 277.000 111.263,277.473 111.294,277.936 111.583 M252.326 112.990 C 256.577 113.687,259.141 116.971,260.622 123.616 C 262.175 130.583,261.420 135.037,257.004 144.982 C 254.155 151.397,254.199 151.206,254.063 157.689 C 253.882 166.306,254.210 169.456,256.347 179.625 C 257.793 186.502,258.221 191.185,258.391 202.000 C 258.588 214.522,259.034 217.707,261.261 222.501 L 262.550 225.273 262.126 226.569 C 260.914 230.274,259.144 231.568,254.846 231.889 C 252.083 232.095,252.093 232.107,252.627 229.492 C 253.275 226.315,252.676 225.290,249.417 224.001 C 245.161 222.319,244.102 220.039,243.378 211.000 C 242.388 198.650,239.565 185.660,235.734 175.836 C 233.243 169.448,233.235 168.745,235.549 158.928 C 237.136 152.195,237.242 149.917,236.278 143.250 C 235.804 139.967,235.671 137.901,235.625 133.125 C 235.574 127.690,235.504 126.819,234.889 123.875 C 233.455 117.020,234.719 115.488,243.244 113.751 C 247.831 112.816,250.102 112.626,252.326 112.990 M47.648 113.810 C 50.501 115.285,50.792 116.035,51.368 123.388 C 51.780 128.649,51.756 129.539,51.100 133.470 C 50.907 134.623,50.750 137.168,50.750 139.127 C 50.750 142.378,50.684 142.901,49.998 145.131 C 49.237 147.605,49.093 148.326,47.764 156.375 C 46.649 163.131,46.624 164.245,47.362 174.375 C 47.794 180.296,47.966 184.187,47.865 185.750 C 47.609 189.745,46.536 198.112,45.619 203.265 C 44.537 209.351,44.498 211.736,45.397 216.760 C 46.434 222.560,45.992 225.160,43.530 227.749 C 41.815 229.552,40.555 229.380,40.088 227.281 C 39.592 225.049,38.806 224.344,35.565 223.229 C 32.585 222.204,32.013 221.319,30.160 214.875 C 28.532 209.212,28.491 209.106,24.842 201.035 C 22.007 194.766,20.571 191.328,18.249 185.250 C 17.592 183.531,16.365 180.574,15.522 178.679 C 12.938 172.872,12.536 169.969,13.500 164.063 C 14.557 157.586,17.749 144.323,21.247 131.875 C 22.059 128.988,22.967 125.219,23.266 123.500 C 24.173 118.285,24.870 117.053,27.426 116.151 C 31.278 114.792,36.260 113.651,40.500 113.156 C 43.116 112.851,46.366 113.148,47.648 113.810 M369.910 114.159 C 371.128 114.521,372.856 115.031,373.750 115.292 C 374.664 115.559,376.955 115.880,378.985 116.026 C 385.074 116.465,385.730 117.601,381.998 121.252 C 379.427 123.768,379.522 124.293,382.875 126.092 C 385.649 127.580,385.754 128.503,385.836 152.125 C 385.894 168.968,385.690 170.092,380.707 180.375 C 376.305 189.459,376.034 189.999,374.176 193.411 C 368.839 203.212,368.629 204.073,370.000 210.541 C 371.149 215.961,370.953 217.324,368.806 218.847 C 366.263 220.649,364.202 219.210,362.914 214.734 C 362.386 212.901,361.626 211.815,360.125 210.750 C 356.687 208.310,356.577 207.987,357.875 204.108 C 358.983 200.796,358.995 199.579,357.984 193.063 C 356.601 184.147,356.467 180.730,357.277 175.061 C 358.248 168.263,357.918 165.527,353.883 146.916 C 351.359 135.277,350.813 123.068,352.636 119.045 C 353.924 116.202,355.058 116.052,357.445 118.410 C 360.379 121.308,362.787 121.904,365.710 120.453 C 367.527 119.552,367.709 118.907,366.866 116.371 C 365.819 113.220,366.090 113.023,369.910 114.159 M203.715 114.970 C 204.865 115.391,207.227 116.493,208.965 117.420 C 214.073 120.142,214.718 120.434,218.036 121.517 C 223.764 123.386,224.435 124.574,222.746 129.848 C 221.127 134.902,221.206 136.391,223.269 139.651 C 224.751 141.993,224.982 142.725,226.119 148.684 C 228.760 162.523,229.660 174.475,228.523 180.625 C 227.641 185.393,224.647 194.968,222.504 199.875 C 222.203 200.563,221.412 202.700,220.746 204.625 C 215.853 218.752,215.701 218.995,211.071 220.000 C 204.224 221.487,203.347 222.397,203.441 227.914 L 203.507 231.782 202.816 231.365 C 200.332 229.867,199.176 227.246,198.962 222.625 C 198.847 220.159,198.355 216.061,197.525 210.661 C 195.219 195.661,194.868 189.094,195.872 179.750 C 196.652 172.486,196.563 164.083,195.664 160.250 C 195.293 158.669,194.604 155.528,194.132 153.271 C 193.079 148.237,192.543 146.446,190.980 142.727 C 187.784 135.126,188.190 130.484,192.880 121.031 C 196.619 113.495,197.830 112.817,203.715 114.970 M110.720 115.624 C 117.183 117.437,120.921 117.607,126.766 116.351 C 132.907 115.032,133.888 115.704,135.145 122.090 C 135.842 125.627,138.813 134.945,139.539 135.868 C 141.133 137.894,142.919 135.247,143.499 130.000 C 144.237 123.323,145.702 121.649,152.157 120.104 C 155.812 119.230,159.500 118.176,161.625 117.400 C 167.642 115.202,165.919 120.242,159.000 125.082 C 155.948 127.217,154.723 129.778,155.086 133.258 C 155.753 139.637,162.068 138.785,166.000 131.786 C 168.224 127.826,169.706 126.445,171.199 126.940 C 173.621 127.741,174.362 134.350,172.804 141.250 C 171.942 145.067,171.392 148.553,170.991 152.750 C 170.840 154.331,170.434 157.481,170.089 159.750 C 169.174 165.777,169.225 169.743,170.293 175.625 C 171.223 180.748,171.468 191.045,170.799 196.875 C 170.060 203.307,168.726 213.729,168.479 215.000 C 168.331 215.756,168.135 218.758,168.043 221.670 C 167.801 229.293,167.464 229.613,162.521 226.926 C 158.593 224.791,158.607 224.815,158.699 220.417 C 158.752 217.841,158.943 216.057,159.397 213.875 C 162.090 200.937,161.791 188.879,158.501 177.753 C 156.733 171.775,156.409 170.262,155.877 165.500 C 154.993 157.600,153.742 156.878,149.479 161.810 C 144.219 167.893,144.175 168.213,147.342 177.375 C 148.571 180.930,149.274 183.540,150.138 187.750 C 150.772 190.844,151.784 195.456,152.386 198.000 C 153.371 202.165,153.744 204.076,155.160 212.250 C 155.839 216.162,154.458 217.875,150.625 217.875 C 147.573 217.875,146.443 216.422,145.476 211.250 C 144.084 203.811,143.756 202.412,143.047 200.896 C 141.303 197.171,139.932 197.793,138.884 202.783 C 135.892 217.029,135.615 219.494,136.403 224.863 C 137.112 229.698,136.433 231.114,132.535 232.936 C 130.749 233.771,129.761 234.438,128.385 235.740 C 125.524 238.449,123.817 239.050,118.990 239.050 C 114.150 239.050,111.168 237.491,111.737 235.257 C 112.031 234.102,113.296 233.864,117.163 234.235 C 121.488 234.650,122.340 234.451,124.154 232.601 C 126.666 230.038,127.196 227.954,126.124 224.851 C 125.303 222.476,125.352 221.422,126.496 216.777 C 127.496 212.722,127.662 210.937,128.253 197.919 C 128.873 184.263,128.871 183.251,128.223 178.907 C 127.582 174.607,127.681 172.029,128.604 169.018 C 129.906 164.772,129.270 161.962,124.867 152.500 C 123.939 150.506,122.524 147.424,121.723 145.650 C 120.022 141.885,119.233 140.657,118.250 140.250 C 115.668 139.181,114.777 142.492,114.618 153.750 C 114.563 157.669,114.385 163.125,114.224 165.875 C 114.062 168.625,113.918 177.287,113.903 185.125 L 113.875 199.375 114.674 203.625 C 116.731 214.570,116.513 219.844,113.925 221.748 C 109.774 224.800,107.669 221.563,106.367 210.125 C 106.148 208.200,105.589 205.162,105.125 203.375 C 104.070 199.310,104.061 199.252,102.590 185.750 C 102.262 182.739,102.176 179.823,102.205 172.668 C 102.242 163.692,102.228 163.388,101.613 160.543 C 99.130 149.047,97.601 151.089,95.883 168.197 C 95.174 175.252,95.132 175.491,93.890 179.452 C 93.403 181.004,92.433 184.491,91.734 187.200 C 87.336 204.242,86.761 206.196,84.661 211.250 C 84.176 212.419,83.366 214.950,82.861 216.875 C 81.334 222.699,80.671 223.487,76.961 223.893 C 73.752 224.245,72.271 225.192,69.793 228.479 C 67.884 231.011,65.876 227.165,66.150 221.500 C 66.303 218.348,66.263 217.885,65.549 214.500 C 64.753 210.726,64.260 206.426,63.628 197.750 C 62.963 188.638,63.123 185.518,64.733 176.171 C 65.626 170.987,65.721 167.411,65.137 161.066 C 64.067 149.435,63.873 135.018,64.730 130.750 C 65.020 129.306,65.425 126.944,65.630 125.500 C 66.053 122.512,66.440 121.793,67.898 121.283 C 70.498 120.372,73.376 122.636,73.878 125.985 C 74.399 129.455,76.580 130.692,80.254 129.601 C 81.938 129.101,83.108 127.973,83.489 126.485 C 84.233 123.579,84.550 123.372,88.228 123.383 C 92.334 123.396,93.250 124.093,93.250 127.205 C 93.250 132.876,96.532 132.295,99.855 126.038 C 100.525 124.776,101.603 123.139,102.251 122.399 C 104.474 119.858,104.530 119.736,104.448 117.612 C 104.326 114.440,105.347 114.116,110.720 115.624 M319.375 118.238 C 319.925 118.358,321.163 118.629,322.125 118.841 C 323.087 119.053,325.619 119.395,327.750 119.600 C 334.341 120.234,334.691 120.626,331.250 123.534 C 327.198 126.959,326.938 131.506,330.654 133.967 C 333.287 135.711,336.149 134.483,339.623 130.120 C 342.766 126.172,344.322 126.664,344.315 131.605 C 344.305 137.528,342.991 141.308,336.480 154.146 C 329.965 166.993,330.128 166.482,330.149 174.000 C 330.160 177.528,330.325 181.070,330.594 183.500 C 330.830 185.631,331.235 190.525,331.496 194.375 C 332.355 207.094,333.602 214.279,335.650 218.320 C 336.982 220.948,337.261 222.040,336.896 223.188 C 336.624 224.039,336.137 223.875,334.851 222.500 C 333.295 220.837,332.398 220.573,329.676 220.978 C 325.069 221.663,324.492 220.700,322.356 208.768 C 321.604 204.565,320.656 199.269,320.251 197.000 C 319.846 194.731,319.336 191.469,319.119 189.750 C 318.633 185.904,318.345 184.743,316.548 179.375 L 315.125 175.125 315.117 169.625 C 315.110 164.288,315.090 164.071,314.438 162.293 C 312.129 155.993,310.449 156.905,308.508 165.510 C 307.967 167.911,307.008 172.125,306.378 174.875 C 305.336 179.422,305.211 180.317,304.999 184.750 C 304.872 187.431,304.545 191.088,304.273 192.875 C 303.237 199.687,303.012 201.480,302.757 204.923 C 302.041 214.604,300.394 218.992,296.844 220.672 C 294.623 221.724,294.029 222.869,294.011 226.132 C 293.994 229.166,293.129 229.961,291.232 228.683 C 288.492 226.836,288.162 223.861,290.175 219.125 C 292.754 213.055,292.641 202.750,289.995 202.750 C 288.481 202.750,284.510 208.970,282.014 215.250 C 281.463 216.639,280.847 217.700,280.239 218.313 L 279.309 219.250 276.483 219.250 C 273.011 219.250,272.155 219.598,270.416 221.716 C 267.402 225.387,266.178 223.898,267.001 217.562 C 267.436 214.215,268.186 213.114,272.512 209.475 C 274.124 208.119,274.918 206.753,276.144 203.224 C 276.641 201.795,277.809 198.938,278.741 196.875 C 279.672 194.813,280.801 192.281,281.249 191.250 C 282.656 188.017,283.726 186.028,286.828 180.875 C 291.473 173.161,291.750 171.810,290.140 164.683 C 289.667 162.588,289.054 159.694,288.778 158.250 C 287.963 153.992,287.552 152.423,286.002 147.651 C 283.771 140.779,283.661 140.274,283.642 136.750 C 283.622 132.999,283.773 132.622,286.247 130.250 C 287.852 128.712,287.985 128.496,288.738 126.201 C 290.185 121.787,290.016 121.865,298.625 121.641 C 302.337 121.544,306.275 121.315,307.375 121.130 C 308.475 120.946,310.126 120.721,311.045 120.630 C 312.336 120.502,313.043 120.263,314.170 119.573 C 316.490 118.154,317.632 117.861,319.375 118.238 M369.941 154.822 C 369.030 156.415,369.629 169.723,370.595 169.352 C 371.918 168.844,372.962 162.034,372.264 158.460 C 371.651 155.317,370.600 153.671,369.941 154.822 M209.878 161.153 C 209.308 162.355,208.821 165.252,208.506 169.305 C 208.105 174.483,208.007 175.162,207.166 178.625 C 206.387 181.831,206.376 181.960,206.378 188.125 C 206.383 201.050,208.373 204.788,210.874 196.571 C 212.043 192.732,214.413 185.846,215.760 182.375 C 217.523 177.831,217.443 174.001,215.453 167.756 C 213.494 161.605,211.042 158.701,209.878 161.153 M79.930 164.190 C 79.104 165.102,77.959 168.114,77.118 171.583 C 76.646 173.531,75.925 176.287,75.517 177.707 C 74.183 182.343,73.918 184.686,74.071 190.468 C 74.339 200.579,75.825 200.687,78.612 190.801 C 78.950 189.604,79.786 186.938,80.471 184.875 C 82.598 178.472,82.777 177.678,82.923 174.000 C 83.177 167.597,81.581 162.365,79.930 164.190 M29.591 166.614 C 28.708 167.233,27.914 169.423,27.909 171.250 C 27.897 176.008,32.855 184.053,34.342 181.688 C 35.378 180.039,35.083 177.574,33.139 171.634 C 31.380 166.262,30.955 165.659,29.591 166.614 M353.136 209.864 C 353.855 210.582,353.878 211.006,353.381 214.302 C 352.640 219.222,350.868 220.403,349.149 217.125 C 347.085 213.188,350.408 207.135,353.136 209.864 M317.904 223.806 C 320.590 225.875,320.689 229.620,318.082 230.534 C 315.519 231.432,311.636 230.834,309.191 229.162 L 307.625 228.092 307.550 226.668 C 307.487 225.481,307.550 225.217,307.925 225.085 C 308.172 224.997,308.606 224.718,308.889 224.465 C 310.211 223.279,316.613 222.811,317.904 223.806 M345.813 225.746 C 346.536 226.315,346.860 227.611,346.625 229.001 C 346.139 231.875,342.815 231.638,342.338 228.695 C 341.912 226.071,343.987 224.310,345.813 225.746 M362.631 230.436 C 364.113 233.132,363.622 234.192,361.833 232.160 C 360.358 230.484,359.622 228.856,359.982 228.065 L 360.272 227.428 361.017 228.141 C 361.427 228.534,362.153 229.566,362.631 230.436 M270.384 231.027 C 271.067 231.730,272.542 232.914,273.663 233.659 C 276.319 235.424,277.213 236.937,276.200 237.950 C 274.461 239.689,268.000 234.510,268.000 231.376 C 268.000 229.398,268.702 229.296,270.384 231.027 M355.686 233.482 C 358.647 235.627,357.878 238.346,354.761 236.756 C 353.206 235.962,352.124 233.710,352.917 232.917 C 353.327 232.506,354.735 232.793,355.686 233.482 M29.687 234.337 C 33.394 235.265,33.367 235.252,33.163 236.063 C 32.576 238.401,22.876 239.317,21.376 237.175 C 19.290 234.198,23.454 232.776,29.687 234.337 M206.899 234.523 C 210.691 236.143,212.581 236.442,215.533 235.886 C 219.585 235.123,222.396 235.788,222.202 237.464 C 221.911 239.976,209.302 240.275,205.477 237.861 C 204.046 236.957,203.375 235.268,203.902 233.895 C 204.111 233.350,204.195 233.368,206.899 234.523 M250.233 234.813 C 249.569 237.138,247.824 238.125,244.375 238.125 C 240.423 238.125,238.107 237.002,239.242 235.635 C 239.833 234.923,244.405 234.205,249.420 234.035 L 250.465 234.000 250.233 234.813 M153.457 235.193 C 156.160 237.009,156.959 238.210,155.813 238.734 C 153.748 239.677,151.168 239.198,150.256 237.703 C 148.707 235.161,150.876 233.460,153.457 235.193 M327.236 235.243 C 327.768 235.514,328.445 236.043,328.740 236.419 L 329.277 237.102 328.701 237.543 C 326.959 238.874,321.571 238.466,320.275 236.905 C 319.289 235.718,325.337 234.274,327.236 235.243 M303.994 235.563 C 306.356 236.771,305.776 238.037,302.782 238.206 C 300.206 238.351,298.448 237.345,298.883 235.974 C 299.234 234.870,302.175 234.632,303.994 235.563 M85.826 236.108 C 89.855 238.065,80.636 240.608,75.767 238.883 C 72.123 237.591,72.156 236.262,75.833 236.235 C 76.956 236.226,78.662 236.065,79.625 235.875 C 81.946 235.419,84.615 235.519,85.826 236.108 M374.750 238.500 C 374.750 238.797,374.316 238.797,373.625 238.500 C 373.206 238.320,373.257 238.282,373.938 238.268 C 374.384 238.258,374.750 238.363,374.750 238.500 M397.527 247.699 C 397.105 247.840,397.197 248.926,397.645 249.098 C 398.240 249.326,398.750 249.281,398.750 249.000 C 398.750 248.863,398.573 248.750,398.357 248.750 C 398.000 248.750,398.000 248.714,398.357 248.357 C 399.005 247.709,398.559 247.355,397.527 247.699 M386.000 248.397 C 386.000 249.113,386.929 249.439,387.736 249.007 C 388.029 248.851,388.490 248.792,388.759 248.878 C 389.290 249.047,389.437 248.645,388.954 248.347 C 388.751 248.221,388.809 248.104,389.142 247.972 C 389.488 247.835,389.395 247.800,388.812 247.850 C 388.364 247.888,387.937 247.980,387.861 248.055 C 387.786 248.130,387.337 248.104,386.862 247.997 C 386.067 247.818,386.000 247.849,386.000 248.397 M389.883 248.073 C 389.776 248.320,389.758 248.592,389.844 248.677 C 390.098 248.931,390.303 248.575,390.186 248.082 C 390.082 247.645,390.069 247.645,389.883 248.073 M390.500 248.235 C 390.500 248.823,390.901 249.125,391.104 248.689 C 391.221 248.438,391.279 248.438,391.396 248.688 C 391.657 249.248,392.250 249.031,392.250 248.375 C 392.250 247.724,391.876 247.520,391.677 248.063 C 391.585 248.313,391.496 248.313,391.231 248.063 C 390.757 247.615,390.500 247.676,390.500 248.235 M392.693 248.396 C 392.839 249.159,393.360 249.427,393.873 249.002 C 394.385 248.576,393.909 247.750,393.151 247.750 C 392.660 247.750,392.589 247.851,392.693 248.396 M395.592 248.313 C 395.675 248.622,395.745 248.967,395.747 249.080 C 395.756 249.670,396.881 249.072,396.954 248.438 C 397.026 247.815,396.958 247.750,396.237 247.750 C 395.534 247.750,395.459 247.815,395.592 248.313 " stroke="none" fill="#aeb6be" fill-rule="evenodd"></path><path id="path1" d="M365.509 33.895 C 365.032 34.102,364.072 34.702,363.375 35.228 C 362.678 35.754,361.650 36.418,361.091 36.704 C 358.352 38.101,356.310 41.464,354.157 48.125 C 352.721 52.569,352.581 53.167,352.381 55.750 C 352.291 56.919,351.943 58.939,351.608 60.239 C 350.540 64.391,350.832 65.672,353.725 69.519 C 359.502 77.201,365.145 75.356,361.752 66.895 C 360.868 64.693,360.843 63.576,361.627 61.431 C 361.985 60.453,362.016 60.023,361.803 59.056 C 360.609 53.638,360.634 53.834,360.915 52.193 C 361.065 51.318,361.604 49.707,362.113 48.614 C 362.622 47.520,363.248 45.676,363.504 44.517 C 364.280 41.007,365.423 40.324,368.555 41.495 C 370.376 42.177,371.066 42.856,371.723 44.610 C 372.021 45.407,372.796 47.136,373.445 48.452 C 375.446 52.512,375.092 54.895,371.951 58.503 C 368.689 62.249,368.821 62.838,374.018 67.750 C 377.748 71.275,378.031 71.478,379.250 71.493 C 380.743 71.510,382.052 72.011,383.491 73.115 C 385.824 74.905,386.438 75.144,387.217 74.562 C 389.244 73.049,388.597 68.914,386.062 67.174 C 381.775 64.232,380.670 61.740,381.642 57.204 C 382.836 51.630,379.879 43.660,375.489 40.617 C 374.687 40.061,374.206 39.415,373.459 37.885 C 371.537 33.953,368.680 32.520,365.509 33.895 M37.992 36.569 C 33.020 38.082,30.658 41.337,34.723 41.073 C 39.524 40.762,41.732 43.283,42.595 50.057 C 43.124 54.209,43.106 55.853,42.511 57.786 C 41.372 61.490,41.598 62.740,44.136 66.757 C 47.177 71.571,49.499 73.040,51.269 71.269 C 52.490 70.048,52.150 64.820,50.463 58.875 C 49.700 56.185,49.687 56.057,49.895 53.000 C 50.382 45.857,50.016 43.241,48.136 40.408 C 45.601 36.588,42.182 35.295,37.992 36.569 M109.735 36.225 C 105.295 37.658,102.435 42.115,101.135 49.625 C 100.568 52.901,100.430 53.317,98.971 56.125 L 97.413 59.125 97.222 62.625 C 97.095 64.947,96.851 66.756,96.495 68.000 C 95.283 72.239,94.940 76.024,95.620 77.651 C 95.972 78.495,100.168 83.170,101.258 83.934 C 102.867 85.061,104.313 82.404,106.870 73.625 C 108.012 69.707,108.469 68.658,110.354 65.625 C 111.711 63.444,111.581 62.574,109.411 59.304 C 104.358 51.689,105.375 43.798,111.613 42.227 C 113.145 41.841,114.544 42.240,116.150 43.521 C 119.938 46.543,121.255 46.668,121.248 44.007 C 121.236 39.669,114.070 34.825,109.735 36.225 M200.125 38.634 C 199.443 38.893,198.072 40.063,195.814 42.314 C 191.318 46.797,190.339 48.807,189.741 54.786 C 189.433 57.872,189.283 58.382,187.731 61.625 C 185.056 67.217,185.515 69.865,189.529 71.989 C 190.407 72.454,191.835 73.280,192.703 73.825 C 195.272 75.436,197.601 75.293,198.760 73.453 C 199.691 71.975,199.343 66.005,198.108 62.250 C 196.921 58.640,196.758 55.041,197.683 52.875 C 197.976 52.188,198.711 50.414,199.314 48.934 C 201.002 44.799,201.907 44.174,206.145 44.217 C 209.027 44.246,209.478 43.994,209.056 42.593 C 208.095 39.404,203.484 37.360,200.125 38.634 M252.434 41.006 C 250.270 41.553,249.384 42.286,245.553 46.707 C 241.923 50.895,242.004 53.707,245.734 53.003 C 248.164 52.544,249.837 52.783,252.303 53.938 C 255.989 55.665,256.817 57.170,257.255 62.936 C 257.635 67.942,257.983 71.136,258.406 73.500 C 258.698 75.136,258.800 78.042,258.846 86.125 L 258.907 96.625 259.660 98.125 C 262.101 102.985,263.255 104.500,264.517 104.500 C 266.195 104.500,266.427 103.327,266.617 93.912 C 266.768 86.420,266.816 85.806,267.422 83.537 C 269.249 76.703,269.237 73.389,267.371 69.350 C 265.738 65.814,264.997 62.612,265.065 59.389 C 265.124 56.646,265.110 56.565,264.279 54.985 C 263.486 53.477,263.422 53.169,263.259 50.125 C 262.885 43.142,258.523 39.468,252.434 41.006 M297.537 43.010 C 295.614 43.404,290.376 46.805,288.825 48.666 C 283.280 55.319,278.089 66.816,279.594 69.113 C 280.626 70.688,285.043 70.727,288.041 69.188 C 291.164 67.583,291.281 67.339,291.215 62.512 C 291.152 57.939,291.251 57.607,293.374 55.232 C 294.165 54.348,295.143 53.039,295.549 52.322 C 297.044 49.682,298.342 49.057,301.708 49.359 C 305.428 49.692,305.115 49.761,305.201 48.588 C 305.454 45.112,301.460 42.205,297.537 43.010 M334.563 42.916 C 334.060 43.118,334.203 44.186,334.808 44.750 C 335.801 45.676,337.545 45.769,337.710 44.905 C 337.970 43.540,336.039 42.320,334.563 42.916 M150.397 50.877 C 149.294 51.899,148.808 53.362,148.639 56.168 C 148.550 57.655,148.283 59.301,147.998 60.131 C 147.151 62.592,146.750 65.404,146.739 68.965 C 146.731 71.365,146.617 72.671,146.352 73.375 C 144.657 77.887,144.912 78.923,147.659 78.695 C 149.491 78.543,150.112 77.893,150.365 75.866 C 150.591 74.058,151.226 73.427,153.504 72.749 C 157.608 71.527,157.753 69.941,154.217 64.952 C 150.609 59.863,150.279 58.672,151.580 55.450 C 153.122 51.630,152.437 48.986,150.397 50.877 M211.850 51.441 C 211.309 51.803,210.979 52.784,210.507 55.434 C 210.087 57.796,209.823 58.522,208.349 61.375 C 206.382 65.183,206.323 65.633,207.310 69.330 C 208.079 72.212,208.376 72.724,209.928 73.850 C 216.191 78.395,219.237 77.420,219.612 70.750 C 219.693 69.306,219.885 67.079,220.039 65.801 C 220.649 60.714,219.957 58.862,215.749 54.313 C 213.073 51.420,212.507 51.003,211.850 51.441 M306.040 52.577 C 305.536 53.184,304.983 55.860,304.765 58.750 C 304.514 62.070,304.232 62.972,302.653 65.509 C 300.746 68.574,300.892 69.797,303.353 71.372 C 305.716 72.883,306.304 73.817,307.508 77.967 C 308.503 81.397,309.103 82.250,310.522 82.250 C 312.883 82.250,314.873 79.049,314.873 75.250 C 314.874 72.649,314.762 72.333,312.739 69.202 C 311.129 66.712,310.899 65.570,311.387 62.497 C 311.615 61.069,311.720 59.543,311.626 59.044 C 311.067 56.062,307.028 51.386,306.040 52.577 M121.972 59.688 C 121.278 61.483,122.084 63.881,123.701 64.828 C 125.428 65.840,126.032 64.277,124.874 61.790 C 123.583 59.018,122.527 58.252,121.972 59.688 M240.936 60.188 C 239.801 61.457,239.209 67.762,240.098 69.118 C 240.899 70.342,242.918 70.138,244.117 68.714 C 245.962 66.521,242.816 58.086,240.936 60.188 M28.750 63.211 C 28.750 63.706,29.485 64.500,29.942 64.500 C 30.475 64.500,30.490 64.054,29.978 63.404 C 29.381 62.645,28.750 62.545,28.750 63.211 M247.399 113.035 C 235.574 114.552,233.343 116.485,234.889 123.875 C 235.504 126.819,235.574 127.690,235.625 133.125 C 235.671 137.901,235.804 139.967,236.278 143.250 C 237.242 149.917,237.136 152.195,235.549 158.928 C 233.235 168.745,233.243 169.448,235.734 175.836 C 239.565 185.660,242.388 198.650,243.378 211.000 C 244.102 220.039,245.161 222.319,249.417 224.001 C 252.676 225.290,253.275 226.315,252.627 229.492 C 252.093 232.107,252.083 232.095,254.846 231.889 C 259.144 231.568,260.914 230.274,262.126 226.569 L 262.550 225.273 261.261 222.501 C 259.034 217.707,258.588 214.522,258.391 202.000 C 258.221 191.185,257.793 186.502,256.347 179.625 C 254.210 169.456,253.882 166.306,254.063 157.689 C 254.199 151.206,254.155 151.397,257.004 144.982 C 261.420 135.037,262.175 130.583,260.622 123.616 C 258.672 114.867,255.141 112.041,247.399 113.035 M40.500 113.156 C 36.260 113.651,31.278 114.792,27.426 116.151 C 24.870 117.053,24.173 118.285,23.266 123.500 C 22.967 125.219,22.059 128.988,21.247 131.875 C 17.749 144.323,14.557 157.586,13.500 164.063 C 12.536 169.969,12.938 172.872,15.522 178.679 C 16.365 180.574,17.592 183.531,18.249 185.250 C 20.571 191.328,22.007 194.766,24.842 201.035 C 28.491 209.106,28.532 209.212,30.160 214.875 C 32.013 221.319,32.585 222.204,35.565 223.229 C 38.806 224.344,39.592 225.049,40.088 227.281 C 40.555 229.380,41.815 229.552,43.530 227.749 C 45.992 225.160,46.434 222.560,45.397 216.760 C 44.498 211.736,44.537 209.351,45.619 203.265 C 46.536 198.112,47.609 189.745,47.865 185.750 C 47.966 184.187,47.794 180.296,47.362 174.375 C 46.624 164.245,46.649 163.131,47.764 156.375 C 49.093 148.326,49.237 147.605,49.998 145.131 C 50.684 142.901,50.750 142.378,50.750 139.127 C 50.750 137.168,50.907 134.623,51.100 133.470 C 51.756 129.539,51.780 128.649,51.368 123.388 C 50.887 117.244,50.741 116.542,49.699 115.356 C 48.006 113.427,44.782 112.656,40.500 113.156 M366.331 113.899 C 366.247 114.119,366.488 115.231,366.866 116.371 C 367.709 118.907,367.527 119.552,365.710 120.453 C 362.787 121.904,360.379 121.308,357.445 118.410 C 355.058 116.052,353.924 116.202,352.636 119.045 C 350.813 123.068,351.359 135.277,353.883 146.916 C 357.918 165.527,358.248 168.263,357.277 175.061 C 356.467 180.730,356.601 184.147,357.984 193.063 C 358.995 199.579,358.983 200.796,357.875 204.108 C 356.577 207.987,356.687 208.310,360.125 210.750 C 361.626 211.815,362.386 212.901,362.914 214.734 C 364.202 219.210,366.263 220.649,368.806 218.847 C 370.953 217.324,371.149 215.961,370.000 210.541 C 368.629 204.073,368.839 203.212,374.176 193.411 C 376.034 189.999,376.305 189.459,380.707 180.375 C 385.690 170.092,385.894 168.968,385.836 152.125 C 385.754 128.503,385.649 127.580,382.875 126.092 C 379.522 124.293,379.427 123.768,381.998 121.252 C 385.730 117.601,385.074 116.465,378.985 116.026 C 376.955 115.880,374.664 115.559,373.750 115.292 C 372.856 115.031,371.128 114.521,369.910 114.159 C 367.354 113.399,366.546 113.340,366.331 113.899 M197.500 114.264 C 196.179 114.824,195.376 116.000,192.880 121.031 C 188.190 130.484,187.784 135.126,190.980 142.727 C 192.543 146.446,193.079 148.237,194.132 153.271 C 194.604 155.528,195.293 158.669,195.664 160.250 C 196.563 164.083,196.652 172.486,195.872 179.750 C 194.868 189.094,195.219 195.661,197.525 210.661 C 198.355 216.061,198.847 220.159,198.962 222.625 C 199.176 227.246,200.332 229.867,202.816 231.365 L 203.507 231.782 203.441 227.914 C 203.347 222.397,204.224 221.487,211.071 220.000 C 215.701 218.995,215.853 218.752,220.746 204.625 C 221.412 202.700,222.203 200.563,222.504 199.875 C 224.647 194.968,227.641 185.393,228.523 180.625 C 229.660 174.475,228.760 162.523,226.119 148.684 C 224.982 142.725,224.751 141.993,223.269 139.651 C 221.206 136.391,221.127 134.902,222.746 129.848 C 224.435 124.574,223.764 123.386,218.036 121.517 C 214.718 120.434,214.073 120.142,208.965 117.420 C 203.658 114.591,199.456 113.434,197.500 114.264 M104.965 115.228 C 104.424 115.666,104.381 115.865,104.448 117.612 C 104.530 119.736,104.474 119.858,102.251 122.399 C 101.603 123.139,100.525 124.776,99.855 126.038 C 96.532 132.295,93.250 132.876,93.250 127.205 C 93.250 124.093,92.334 123.396,88.228 123.383 C 84.550 123.372,84.233 123.579,83.489 126.485 C 83.108 127.973,81.938 129.101,80.254 129.601 C 76.580 130.692,74.399 129.455,73.878 125.985 C 73.376 122.636,70.498 120.372,67.898 121.283 C 66.440 121.793,66.053 122.512,65.630 125.500 C 65.425 126.944,65.020 129.306,64.730 130.750 C 63.873 135.018,64.067 149.435,65.137 161.066 C 65.721 167.411,65.626 170.987,64.733 176.171 C 63.123 185.518,62.963 188.638,63.628 197.750 C 64.260 206.426,64.753 210.726,65.549 214.500 C 66.263 217.885,66.303 218.348,66.150 221.500 C 65.876 227.165,67.884 231.011,69.793 228.479 C 72.271 225.192,73.752 224.245,76.961 223.893 C 80.671 223.487,81.334 222.699,82.861 216.875 C 83.366 214.950,84.176 212.419,84.661 211.250 C 86.761 206.196,87.336 204.242,91.734 187.200 C 92.433 184.491,93.403 181.004,93.890 179.452 C 95.132 175.491,95.174 175.252,95.883 168.197 C 97.601 151.089,99.130 149.047,101.613 160.543 C 102.228 163.388,102.242 163.692,102.205 172.668 C 102.176 179.823,102.262 182.739,102.590 185.750 C 104.061 199.252,104.070 199.310,105.125 203.375 C 105.589 205.162,106.148 208.200,106.367 210.125 C 107.669 221.563,109.774 224.800,113.925 221.748 C 116.513 219.844,116.731 214.570,114.674 203.625 L 113.875 199.375 113.903 185.125 C 113.918 177.287,114.062 168.625,114.224 165.875 C 114.385 163.125,114.563 157.669,114.618 153.750 C 114.777 142.492,115.668 139.181,118.250 140.250 C 119.233 140.657,120.022 141.885,121.723 145.650 C 122.524 147.424,123.939 150.506,124.867 152.500 C 129.270 161.962,129.906 164.772,128.604 169.018 C 127.681 172.029,127.582 174.607,128.223 178.907 C 128.871 183.251,128.873 184.263,128.253 197.919 C 127.662 210.937,127.496 212.722,126.496 216.777 C 125.352 221.422,125.303 222.476,126.124 224.851 C 127.196 227.954,126.666 230.038,124.154 232.601 C 122.340 234.451,121.488 234.650,117.163 234.235 C 113.296 233.864,112.031 234.102,111.737 235.257 C 111.168 237.491,114.150 239.050,118.990 239.050 C 123.817 239.050,125.524 238.449,128.385 235.740 C 129.761 234.438,130.749 233.771,132.535 232.936 C 136.433 231.114,137.112 229.698,136.403 224.863 C 135.615 219.494,135.892 217.029,138.884 202.783 C 139.932 197.793,141.303 197.171,143.047 200.896 C 143.756 202.412,144.084 203.811,145.476 211.250 C 146.443 216.422,147.573 217.875,150.625 217.875 C 154.458 217.875,155.839 216.162,155.160 212.250 C 153.744 204.076,153.371 202.165,152.386 198.000 C 151.784 195.456,150.772 190.844,150.138 187.750 C 149.274 183.540,148.571 180.930,147.342 177.375 C 144.175 168.213,144.219 167.893,149.479 161.810 C 153.742 156.878,154.993 157.600,155.877 165.500 C 156.409 170.262,156.733 171.775,158.501 177.753 C 161.791 188.879,162.090 200.937,159.397 213.875 C 158.943 216.057,158.752 217.841,158.699 220.417 C 158.607 224.815,158.593 224.791,162.521 226.926 C 167.464 229.613,167.801 229.293,168.043 221.670 C 168.135 218.758,168.331 215.756,168.479 215.000 C 168.726 213.729,170.060 203.307,170.799 196.875 C 171.468 191.045,171.223 180.748,170.293 175.625 C 169.225 169.743,169.174 165.777,170.089 159.750 C 170.434 157.481,170.840 154.331,170.991 152.750 C 171.392 148.553,171.942 145.067,172.804 141.250 C 174.362 134.350,173.621 127.741,171.199 126.940 C 169.706 126.445,168.224 127.826,166.000 131.786 C 162.068 138.785,155.753 139.637,155.086 133.258 C 154.723 129.778,155.948 127.217,159.000 125.082 C 165.919 120.242,167.642 115.202,161.625 117.400 C 159.500 118.176,155.812 119.230,152.157 120.104 C 145.702 121.649,144.237 123.323,143.499 130.000 C 142.919 135.247,141.133 137.894,139.539 135.868 C 138.813 134.945,135.842 125.627,135.145 122.090 C 133.888 115.704,132.907 115.032,126.766 116.351 C 120.921 117.607,117.183 117.437,110.720 115.624 C 107.168 114.627,105.821 114.535,104.965 115.228 M316.625 118.358 C 316.075 118.537,314.970 119.084,314.170 119.573 C 313.043 120.263,312.336 120.502,311.045 120.630 C 310.126 120.721,308.475 120.946,307.375 121.130 C 306.275 121.315,302.337 121.544,298.625 121.641 C 290.016 121.865,290.185 121.787,288.738 126.201 C 287.985 128.496,287.852 128.712,286.247 130.250 C 283.773 132.622,283.622 132.999,283.642 136.750 C 283.661 140.274,283.771 140.779,286.002 147.651 C 287.552 152.423,287.963 153.992,288.778 158.250 C 289.054 159.694,289.667 162.588,290.140 164.683 C 291.750 171.810,291.473 173.161,286.828 180.875 C 283.726 186.028,282.656 188.017,281.249 191.250 C 280.801 192.281,279.672 194.813,278.741 196.875 C 277.809 198.938,276.641 201.795,276.144 203.224 C 274.918 206.753,274.124 208.119,272.512 209.475 C 268.186 213.114,267.436 214.215,267.001 217.562 C 266.178 223.898,267.402 225.387,270.416 221.716 C 272.155 219.598,273.011 219.250,276.483 219.250 L 279.309 219.250 280.239 218.313 C 280.847 217.700,281.463 216.639,282.014 215.250 C 284.510 208.970,288.481 202.750,289.995 202.750 C 292.641 202.750,292.754 213.055,290.175 219.125 C 288.162 223.861,288.492 226.836,291.232 228.683 C 293.129 229.961,293.994 229.166,294.011 226.132 C 294.029 222.869,294.623 221.724,296.844 220.672 C 300.394 218.992,302.041 214.604,302.757 204.923 C 303.012 201.480,303.237 199.687,304.273 192.875 C 304.545 191.088,304.872 187.431,304.999 184.750 C 305.211 180.317,305.336 179.422,306.378 174.875 C 307.008 172.125,307.967 167.911,308.508 165.510 C 310.449 156.905,312.129 155.993,314.438 162.293 C 315.090 164.071,315.110 164.288,315.117 169.625 L 315.125 175.125 316.548 179.375 C 318.345 184.743,318.633 185.904,319.119 189.750 C 319.336 191.469,319.846 194.731,320.251 197.000 C 324.824 222.595,324.491 221.749,329.676 220.978 C 332.398 220.573,333.295 220.837,334.851 222.500 C 336.137 223.875,336.624 224.039,336.896 223.188 C 337.261 222.040,336.982 220.948,335.650 218.320 C 333.602 214.279,332.355 207.094,331.496 194.375 C 331.235 190.525,330.830 185.631,330.594 183.500 C 330.325 181.070,330.160 177.528,330.149 174.000 C 330.128 166.482,329.965 166.993,336.480 154.146 C 342.991 141.308,344.305 137.528,344.315 131.605 C 344.322 126.664,342.766 126.172,339.623 130.120 C 336.149 134.483,333.287 135.711,330.654 133.967 C 326.938 131.506,327.198 126.959,331.250 123.534 C 334.691 120.626,334.341 120.234,327.750 119.600 C 325.619 119.395,323.087 119.053,322.125 118.841 C 317.689 117.863,318.052 117.895,316.625 118.358 M371.454 155.705 C 373.107 159.567,372.537 168.607,370.595 169.352 C 369.776 169.666,369.625 168.505,369.625 161.875 C 369.625 154.032,370.081 152.495,371.454 155.705 M212.203 161.030 C 213.184 162.033,214.493 164.742,215.453 167.756 C 217.443 174.001,217.523 177.831,215.760 182.375 C 214.413 185.846,212.043 192.732,210.874 196.571 C 208.373 204.788,206.383 201.050,206.378 188.125 C 206.376 181.960,206.387 181.831,207.166 178.625 C 208.007 175.162,208.105 174.483,208.506 169.305 C 209.137 161.172,210.142 158.922,212.203 161.030 M81.676 164.891 C 82.592 166.551,83.078 170.101,82.923 174.000 C 82.777 177.678,82.598 178.472,80.471 184.875 C 79.786 186.938,78.950 189.604,78.612 190.801 C 75.825 200.687,74.339 200.579,74.071 190.468 C 73.918 184.686,74.183 182.343,75.517 177.707 C 75.925 176.287,76.646 173.531,77.118 171.583 C 78.767 164.779,80.340 162.469,81.676 164.891 M31.376 166.912 C 31.947 167.783,34.390 175.265,34.747 177.235 C 35.190 179.675,34.609 182.250,33.616 182.250 C 31.675 182.250,27.899 174.972,27.909 171.250 C 27.918 167.769,30.127 165.005,31.376 166.912 M350.325 209.740 C 347.280 211.597,348.680 220.393,351.758 218.745 C 352.657 218.264,353.742 214.138,353.749 211.176 C 353.752 209.560,351.896 208.782,350.325 209.740 M268.300 230.050 C 266.488 231.862,271.758 238.250,275.065 238.250 C 277.688 238.250,276.954 235.847,273.663 233.659 C 272.542 232.914,271.067 231.730,270.384 231.027 C 269.087 229.692,268.795 229.555,268.300 230.050 M352.917 232.917 C 352.124 233.710,353.206 235.962,354.761 236.756 C 357.878 238.346,358.647 235.627,355.686 233.482 C 354.735 232.793,353.327 232.506,352.917 232.917 M23.099 233.770 C 20.571 234.504,20.310 237.220,22.688 238.031 C 26.439 239.311,34.942 237.109,33.155 235.322 C 32.290 234.457,24.744 233.293,23.099 233.770 M203.902 233.895 C 203.375 235.268,204.046 236.957,205.477 237.861 C 209.302 240.275,221.911 239.976,222.202 237.464 C 222.396 235.788,219.585 235.123,215.533 235.886 C 212.581 236.442,210.691 236.143,206.899 234.523 C 204.195 233.368,204.111 233.350,203.902 233.895 M244.802 234.394 C 239.863 234.842,238.762 235.268,239.097 236.602 C 239.483 238.141,245.731 238.773,247.978 237.500 C 249.227 236.792,249.895 235.995,250.233 234.813 L 250.465 234.000 249.420 234.035 C 248.845 234.055,246.767 234.216,244.802 234.394 M150.143 234.893 C 148.488 236.548,151.034 239.472,153.873 239.178 C 156.603 238.894,157.023 238.288,155.494 236.839 C 153.174 234.641,151.136 233.900,150.143 234.893 M323.000 235.221 C 319.831 236.243,319.465 236.811,321.440 237.636 C 323.872 238.652,327.307 238.608,328.701 237.543 L 329.277 237.102 328.740 236.419 C 327.488 234.827,325.503 234.413,323.000 235.221 M299.584 235.250 C 298.343 235.750,298.646 237.156,300.147 237.869 C 302.229 238.857,306.149 237.871,305.356 236.559 C 304.621 235.344,301.248 234.579,299.584 235.250 M79.625 235.875 C 78.662 236.065,76.956 236.226,75.833 236.235 C 72.760 236.258,72.262 236.661,73.830 237.857 C 76.403 239.820,82.351 240.031,85.750 238.280 C 88.940 236.637,84.540 234.910,79.625 235.875 M373.625 238.500 C 374.316 238.797,374.750 238.797,374.750 238.500 C 374.750 238.363,374.384 238.258,373.938 238.268 C 373.257 238.282,373.206 238.320,373.625 238.500 " stroke="none" fill="#1c1e29" fill-rule="evenodd"></path><path id="path2" d="M74.800 53.300 C 74.269 53.831,74.951 56.131,75.794 56.652 C 76.256 56.938,77.250 55.706,77.250 54.848 C 77.250 53.597,75.567 52.533,74.800 53.300 M330.990 55.688 C 330.051 56.871,330.775 61.344,332.014 62.007 C 332.984 62.527,334.780 61.072,335.129 59.483 C 335.835 56.269,332.765 53.453,330.990 55.688 M158.504 56.447 C 157.169 57.528,157.625 61.621,159.242 63.066 C 160.185 63.909,160.718 63.724,161.385 62.321 C 163.085 58.744,160.977 54.444,158.504 56.447 M203.375 56.500 C 203.290 56.638,203.452 56.750,203.735 56.750 C 204.018 56.750,204.250 56.638,204.250 56.500 C 204.250 56.362,204.088 56.250,203.890 56.250 C 203.692 56.250,203.460 56.362,203.375 56.500 M74.250 58.826 C 72.332 59.991,71.740 61.411,72.639 62.694 C 73.984 64.614,77.150 61.474,76.068 59.295 C 75.524 58.199,75.354 58.155,74.250 58.826 M249.167 59.167 C 248.619 59.714,249.306 62.276,250.080 62.573 C 251.436 63.093,252.367 60.594,251.216 59.522 C 250.678 59.021,249.514 58.819,249.167 59.167 M297.750 59.625 C 297.619 59.969,297.372 60.250,297.201 60.250 C 297.016 60.250,297.097 60.458,297.399 60.760 C 298.252 61.614,299.776 60.310,299.007 59.384 C 298.537 58.817,298.019 58.917,297.750 59.625 M38.587 67.999 C 38.291 68.118,37.841 68.528,37.587 68.910 C 35.780 71.623,33.437 73.111,30.945 73.126 C 29.014 73.137,28.936 73.193,28.498 74.875 C 27.955 76.955,27.297 77.981,24.905 80.482 C 22.532 82.963,21.750 84.187,21.750 85.425 C 21.750 86.160,21.895 86.288,24.375 87.730 C 25.474 88.370,26.410 90.299,26.876 92.883 C 27.098 94.116,27.442 96.025,27.640 97.125 C 28.176 100.098,28.097 101.117,27.109 104.013 C 25.062 110.016,26.411 111.399,33.292 110.353 C 40.722 109.223,43.866 108.951,47.407 109.131 C 51.860 109.357,52.493 108.354,50.769 103.804 C 49.323 99.987,49.105 97.299,49.946 93.625 C 53.184 79.479,53.088 78.120,48.689 75.867 C 45.768 74.371,44.580 73.409,42.714 71.027 C 41.398 69.348,39.678 67.720,39.268 67.766 C 39.189 67.775,38.883 67.879,38.587 67.999 M114.419 68.356 C 111.964 69.559,111.281 70.661,110.366 74.893 C 110.021 76.487,109.349 79.080,108.871 80.656 C 108.393 82.232,107.827 84.871,107.612 86.522 C 106.854 92.348,104.286 99.736,102.297 101.813 C 99.912 104.302,98.229 101.657,95.974 91.877 C 94.860 87.050,94.246 85.600,92.634 84.000 C 91.073 82.450,89.958 80.713,89.102 78.500 C 87.311 73.863,83.918 72.958,79.329 75.894 C 76.671 77.594,75.834 77.551,71.088 75.471 C 66.773 73.580,65.711 73.765,62.534 76.960 C 58.949 80.565,58.251 82.424,58.249 88.365 C 58.247 93.693,57.818 99.932,57.243 103.000 C 56.389 107.554,56.569 108.631,58.851 112.608 C 61.075 116.484,62.404 117.127,65.812 115.979 C 68.561 115.053,69.562 115.277,73.577 117.712 C 75.801 119.062,76.574 119.326,77.805 119.158 C 81.242 118.689,82.189 118.701,85.344 119.254 C 92.541 120.517,95.151 119.549,96.716 115.036 C 98.265 110.569,100.616 107.922,103.005 107.955 C 105.403 107.988,110.534 109.463,112.229 110.607 C 116.642 113.584,125.620 114.040,130.486 111.534 C 132.421 110.537,132.920 107.200,132.037 101.169 C 131.663 98.623,131.668 93.312,132.044 92.225 C 132.227 91.697,133.355 90.381,135.025 88.750 C 138.454 85.399,138.886 84.314,138.856 79.125 C 138.814 71.674,136.796 69.331,131.750 70.876 C 130.050 71.396,129.125 71.524,127.125 71.517 C 123.771 71.505,123.358 71.846,124.400 73.768 C 126.418 77.487,126.400 77.891,124.215 77.850 C 120.456 77.780,117.589 74.818,118.300 71.738 C 119.043 68.520,117.259 66.965,114.419 68.356 M251.250 68.701 C 251.044 68.771,250.088 69.525,249.125 70.379 C 248.162 71.233,246.419 72.546,245.250 73.298 C 242.731 74.919,240.583 77.142,238.888 79.882 C 238.209 80.978,237.198 82.453,236.640 83.158 C 236.082 83.864,235.092 85.302,234.441 86.353 C 232.308 89.793,230.956 88.912,227.446 81.795 C 225.735 78.324,224.236 77.906,221.593 80.163 L 220.173 81.375 218.149 81.366 C 216.485 81.359,215.658 81.196,213.500 80.450 C 212.056 79.951,210.064 79.305,209.073 79.014 C 208.082 78.723,206.620 78.166,205.823 77.777 C 203.556 76.668,203.309 76.660,200.687 77.609 C 194.933 79.692,192.936 79.644,190.477 77.367 C 188.005 75.077,186.060 74.805,183.109 76.334 C 181.008 77.423,181.012 77.423,179.027 76.617 C 178.170 76.268,176.491 75.813,175.297 75.606 C 172.961 75.200,171.831 74.883,169.180 73.888 C 165.342 72.449,163.923 72.712,162.100 75.202 C 157.999 80.803,154.440 83.797,151.081 84.471 C 148.002 85.090,146.802 85.946,145.862 88.194 C 145.328 89.474,145.546 89.973,147.138 91.108 C 148.996 92.433,152.690 96.300,152.902 97.142 C 153.162 98.180,152.727 99.038,151.532 99.840 C 149.443 101.243,149.371 104.353,151.374 106.750 C 151.873 107.348,152.220 108.707,152.490 111.122 C 152.975 115.462,154.475 115.856,161.151 113.395 C 162.787 112.792,165.223 112.067,166.566 111.785 C 169.163 111.237,170.715 110.633,170.924 110.087 C 170.995 109.903,171.134 109.804,171.235 109.865 C 171.335 109.927,171.417 109.658,171.417 109.266 C 171.417 107.768,172.526 106.234,173.026 107.042 C 173.300 107.485,173.000 108.774,172.461 109.471 C 172.208 109.799,171.993 109.968,171.984 109.846 C 171.975 109.725,171.854 109.906,171.715 110.250 C 171.363 111.120,171.438 118.557,171.802 118.782 C 172.321 119.103,174.500 118.079,174.500 117.513 C 174.500 117.434,174.808 117.038,175.185 116.631 C 177.422 114.219,179.250 110.459,179.250 108.270 C 179.250 106.770,179.732 104.518,180.513 102.375 C 180.914 101.275,181.355 99.915,181.495 99.352 C 181.995 97.330,183.343 97.014,184.424 98.665 C 184.807 99.249,184.879 99.948,184.903 103.287 L 184.931 107.221 185.842 109.048 C 186.774 110.918,187.598 112.185,188.538 113.196 L 189.069 113.767 189.472 113.244 C 192.299 109.575,193.354 109.245,199.019 110.263 C 203.701 111.105,206.780 112.288,212.625 115.494 C 221.459 120.338,229.312 118.681,225.626 112.750 C 221.883 106.727,221.184 104.158,222.287 100.475 C 222.583 99.486,223.325 98.500,223.773 98.500 C 223.913 98.500,225.097 99.520,226.406 100.767 C 229.173 103.403,230.469 104.282,232.657 105.011 C 234.436 105.603,235.110 106.272,235.511 107.845 C 236.363 111.188,237.197 111.533,241.875 110.485 C 243.113 110.208,245.925 109.714,248.125 109.388 C 254.818 108.396,254.252 109.451,253.979 98.500 C 253.793 91.023,253.819 89.492,254.177 87.000 C 255.462 78.059,253.827 67.838,251.250 68.701 M367.511 69.230 C 367.369 69.494,367.144 70.478,367.009 71.417 C 366.322 76.221,364.592 78.517,360.810 79.645 C 358.553 80.318,356.533 78.999,353.114 74.620 C 350.366 71.101,349.507 70.572,345.405 69.877 C 342.596 69.400,340.764 69.401,338.454 69.878 C 335.220 70.546,334.880 70.817,333.977 73.442 C 332.303 78.307,329.935 79.649,327.346 77.200 C 324.484 74.494,322.750 75.699,322.750 80.391 C 322.750 83.875,322.664 84.074,320.185 86.299 C 317.106 89.062,316.928 90.097,318.780 94.461 C 320.073 97.505,320.113 97.770,319.753 100.803 C 319.318 104.461,318.846 106.577,318.159 107.940 C 316.874 110.489,317.067 111.750,318.741 111.750 C 319.928 111.750,320.623 110.998,320.884 109.430 C 321.435 106.122,323.869 104.054,324.889 106.028 C 325.270 106.765,325.258 106.915,324.646 108.877 C 323.100 113.836,324.903 115.446,332.366 115.772 C 338.392 116.036,339.345 116.416,341.919 119.581 C 342.888 120.774,345.186 120.148,346.910 118.223 C 347.653 117.393,351.831 111.043,353.478 108.241 C 355.912 104.098,360.693 104.600,371.301 110.114 C 376.152 112.635,378.488 113.036,383.863 112.273 C 387.523 111.754,387.567 111.659,387.759 104.000 C 387.889 98.804,387.976 97.879,388.512 96.000 C 389.919 91.070,389.200 84.786,387.029 83.041 C 386.403 82.537,385.100 81.379,384.133 80.468 C 382.184 78.631,381.562 78.260,379.386 77.634 C 376.167 76.709,374.820 75.693,372.758 72.636 C 370.614 69.459,368.220 67.905,367.511 69.230 M22.753 69.372 C 22.300 69.917,22.635 70.500,23.402 70.500 C 24.303 70.500,24.859 69.764,24.286 69.329 C 23.730 68.905,23.126 68.922,22.753 69.372 M288.875 74.665 C 287.806 74.915,286.729 74.965,285.125 74.838 C 280.146 74.446,278.427 75.176,276.203 78.625 C 273.162 83.341,273.096 83.516,273.500 85.873 C 273.889 88.149,273.753 88.889,272.606 90.748 C 269.593 95.630,272.343 99.453,275.758 95.129 C 279.281 90.666,282.166 91.778,282.959 97.902 C 283.492 102.021,284.548 103.882,288.056 106.886 C 290.623 109.085,290.759 109.461,290.033 112.356 C 289.406 114.856,289.360 116.074,289.871 116.586 C 290.685 117.399,294.697 117.884,297.646 117.526 C 298.872 117.377,301.540 117.088,303.576 116.884 C 311.755 116.062,313.009 114.734,310.771 109.267 C 308.491 103.700,308.729 98.397,311.536 92.206 C 312.945 89.098,312.676 88.495,309.329 87.268 C 306.258 86.142,305.223 84.793,304.493 80.964 C 303.724 76.927,302.765 75.675,300.125 75.262 C 299.300 75.133,297.495 74.853,296.114 74.639 C 293.138 74.178,290.928 74.186,288.875 74.665 M12.349 84.857 C 9.806 85.965,9.271 92.000,11.716 92.000 C 12.790 92.000,14.188 89.061,14.371 86.420 C 14.509 84.416,14.096 84.097,12.349 84.857 M45.154 93.118 C 45.814 93.778,45.890 95.797,45.276 96.353 C 44.635 96.931,44.605 96.905,43.994 95.232 C 43.330 93.418,44.083 92.047,45.154 93.118 M69.974 94.891 C 71.182 95.908,71.306 96.842,70.590 99.552 C 70.253 100.829,69.705 103.189,69.374 104.795 C 68.420 109.415,67.989 110.117,66.482 109.493 C 63.463 108.242,63.848 98.755,67.053 95.410 C 68.326 94.081,68.892 93.981,69.974 94.891 M195.707 98.688 C 198.180 101.317,198.920 103.364,197.613 103.960 C 195.199 105.060,192.535 102.558,192.864 99.500 C 193.114 97.175,194.036 96.911,195.707 98.688 M350.672 98.988 C 353.720 100.846,353.212 106.750,350.003 106.750 C 347.753 106.750,346.482 102.479,347.905 99.700 C 348.544 98.450,349.420 98.224,350.672 98.988 M277.000 111.522 C 277.000 111.647,277.141 111.752,277.313 111.754 C 277.521 111.756,277.500 111.838,277.250 112.000 C 276.928 112.208,276.937 112.247,277.313 112.277 C 277.974 112.330,278.096 112.364,278.462 112.596 C 278.735 112.769,278.747 112.711,278.524 112.294 C 278.117 111.534,277.000 110.968,277.000 111.522 M182.750 221.992 C 174.523 222.146,174.231 222.212,173.734 224.060 C 172.967 226.909,173.988 229.766,176.166 230.860 C 176.739 231.148,177.414 231.565,177.666 231.787 C 177.918 232.009,178.357 232.261,178.640 232.347 C 179.438 232.590,180.840 234.155,180.666 234.609 C 180.550 234.910,180.126 235.001,178.820 235.004 C 173.760 235.018,171.410 235.693,169.955 237.553 C 166.748 241.650,163.309 243.441,157.583 243.998 C 152.285 244.513,149.672 244.199,147.075 242.733 C 142.454 240.125,140.374 239.721,137.750 240.922 C 135.807 241.811,134.842 242.028,132.829 242.026 C 131.754 242.025,130.088 242.191,129.125 242.395 C 124.637 243.348,123.176 243.547,120.500 243.567 C 116.764 243.596,113.359 243.121,110.913 242.231 C 109.068 241.560,102.773 238.392,102.500 237.998 C 102.431 237.898,101.886 237.569,101.288 237.266 C 99.885 236.554,98.000 234.816,98.000 234.233 C 98.000 233.984,97.876 233.703,97.725 233.609 C 96.691 232.970,98.578 230.579,101.000 229.461 C 101.894 229.048,102.794 228.624,103.000 228.518 C 103.929 228.040,103.220 224.852,102.136 224.628 C 96.805 223.523,87.980 223.850,86.563 225.204 C 82.823 228.779,83.284 229.902,89.250 231.757 C 94.921 233.520,96.620 235.172,95.758 238.087 C 94.915 240.934,92.562 242.062,85.217 243.139 C 78.328 244.148,74.702 243.815,68.625 241.616 C 50.155 234.929,49.675 234.838,46.901 237.483 C 44.746 239.539,43.630 240.042,40.879 240.196 C 39.145 240.293,38.135 240.511,36.500 241.139 C 31.222 243.169,22.479 243.408,18.398 241.635 C 17.299 241.157,14.880 238.951,13.891 237.523 C 13.132 236.428,12.035 235.891,8.250 234.763 C 6.806 234.333,4.669 233.680,3.500 233.313 C 2.331 232.945,1.291 232.668,1.188 232.697 C 1.084 232.726,1.000 232.625,1.000 232.473 C 1.000 232.321,0.839 232.258,0.641 232.334 C 0.444 232.410,0.228 232.338,0.161 232.173 C 0.094 232.009,0.031 235.953,0.020 240.938 L 0.000 250.000 200.000 250.000 L 400.000 250.000 400.000 237.982 C 400.000 225.585,399.929 224.671,399.034 225.566 C 398.875 225.725,398.750 225.742,398.750 225.605 C 398.750 225.467,397.799 225.346,396.563 225.326 C 395.359 225.307,394.150 225.279,393.875 225.264 C 393.600 225.249,391.304 225.234,388.773 225.231 C 386.017 225.228,383.973 225.119,383.676 224.960 C 383.203 224.708,377.180 224.837,375.903 225.128 C 375.612 225.194,374.948 225.290,374.427 225.341 C 371.774 225.600,371.357 231.059,373.939 231.722 C 374.454 231.854,375.606 232.144,376.500 232.366 C 383.387 234.079,383.436 242.511,376.565 243.622 C 374.336 243.982,369.083 242.931,366.446 241.597 C 364.941 240.835,364.137 240.846,361.851 241.658 C 358.140 242.975,350.487 241.655,343.693 238.525 C 340.997 237.283,339.485 237.506,336.956 239.518 C 332.568 243.010,327.688 243.497,316.375 241.571 C 312.281 240.874,311.557 240.880,309.237 241.630 C 305.705 242.773,300.194 242.754,296.901 241.589 C 296.336 241.389,294.300 240.903,292.375 240.508 C 290.450 240.114,288.256 239.614,287.500 239.398 C 284.914 238.660,284.226 238.804,282.393 240.465 C 279.208 243.351,276.321 243.674,269.391 241.916 C 264.290 240.623,263.583 240.495,260.000 240.224 C 258.281 240.094,256.369 239.926,255.750 239.851 C 254.817 239.738,254.179 239.894,252.013 240.766 C 245.090 243.552,236.729 242.364,232.664 238.017 C 231.204 236.455,230.870 236.479,229.976 238.211 C 226.676 244.597,212.063 245.427,196.154 240.132 C 189.936 238.062,186.797 235.880,189.315 235.377 C 193.450 234.552,196.250 232.997,196.250 231.526 C 196.250 230.770,193.748 224.121,193.073 223.084 C 192.690 222.496,191.004 221.716,190.307 221.805 C 190.070 221.835,186.669 221.920,182.750 221.992 M311.014 223.652 C 310.127 223.846,309.171 224.212,308.889 224.465 C 308.606 224.718,308.172 224.997,307.925 225.085 C 307.550 225.217,307.487 225.481,307.550 226.668 L 307.625 228.092 309.191 229.162 C 313.586 232.166,320.054 231.320,319.980 227.750 C 319.900 223.873,316.699 222.410,311.014 223.652 M343.013 225.916 C 341.504 227.833,342.344 230.794,344.440 230.951 C 346.121 231.076,347.046 229.459,346.613 227.150 C 346.273 225.339,344.063 224.581,343.013 225.916 M359.982 228.065 C 359.506 229.109,362.034 233.250,363.146 233.250 C 364.103 233.250,362.609 229.667,361.017 228.141 L 360.272 227.428 359.982 228.065 M398.750 247.786 C 398.750 247.884,398.573 248.141,398.357 248.357 C 398.000 248.714,398.000 248.750,398.357 248.750 C 398.573 248.750,398.750 248.863,398.750 249.000 C 398.750 249.281,398.240 249.326,397.645 249.098 C 397.197 248.926,397.105 247.840,397.527 247.699 C 397.994 247.544,398.750 247.597,398.750 247.786 M387.861 248.055 C 387.937 247.980,388.364 247.888,388.812 247.850 C 389.395 247.800,389.488 247.835,389.142 247.972 C 388.809 248.104,388.751 248.221,388.954 248.347 C 389.437 248.645,389.290 249.047,388.759 248.878 C 388.490 248.792,388.029 248.851,387.736 249.007 C 386.929 249.439,386.000 249.113,386.000 248.397 C 386.000 247.849,386.067 247.818,386.862 247.997 C 387.337 248.104,387.786 248.130,387.861 248.055 M390.147 248.686 C 389.874 248.959,389.687 248.525,389.883 248.073 C 390.069 247.645,390.082 247.645,390.186 248.082 C 390.245 248.333,390.228 248.605,390.147 248.686 M391.231 248.063 C 391.496 248.313,391.585 248.313,391.677 248.063 C 391.876 247.520,392.250 247.724,392.250 248.375 C 392.250 249.031,391.657 249.248,391.396 248.688 C 391.279 248.438,391.221 248.438,391.104 248.689 C 390.901 249.125,390.500 248.823,390.500 248.235 C 390.500 247.676,390.757 247.615,391.231 248.063 M393.986 248.224 C 394.174 248.575,394.145 248.776,393.873 249.002 C 393.360 249.427,392.839 249.159,392.693 248.396 C 392.539 247.593,393.575 247.456,393.986 248.224 M396.954 248.438 C 396.881 249.072,395.756 249.670,395.747 249.080 C 395.745 248.967,395.675 248.622,395.592 248.313 C 395.459 247.815,395.534 247.750,396.237 247.750 C 396.958 247.750,397.026 247.815,396.954 248.438 " stroke="none" fill="#efebeb" fill-rule="evenodd"></path></g></svg>